<svg width="512" height="512" xmlns="http://www.w3.org/2000/svg">
 <title/>

 <g>
  <title>background</title>
  <rect fill="none" id="canvas_background" height="402" width="582" y="-1" x="-1"/>
 </g>
 <g>
  <title>Layer 1</title>
  <path id="svg_1" d="m293.9,450l-60.37,0a15,15 0 0 1 -14.92,-13.42l-4.47,-42.09a152.77,152.77 0 0 1 -18.25,-7.56l-32.89,26.6a15,15 0 0 1 -20,-1.06l-42.69,-42.69a15,15 0 0 1 -1.06,-20l26.61,-32.93a152.15,152.15 0 0 1 -7.57,-18.25l-42.16,-4.5a15,15 0 0 1 -13.42,-14.91l0,-60.38a15,15 0 0 1 13.42,-14.91l42.09,-4.47a152.15,152.15 0 0 1 7.57,-18.25l-26.61,-32.93a15,15 0 0 1 1.06,-20l42.69,-42.69a15,15 0 0 1 20,-1.06l32.93,26.6a152.77,152.77 0 0 1 18.25,-7.56l4.47,-42.09a15,15 0 0 1 14.95,-13.45l60.37,0a15,15 0 0 1 14.92,13.42l4.46,42.09a152.91,152.91 0 0 1 18.26,7.56l32.92,-26.6a15,15 0 0 1 20,1.06l42.69,42.69a15,15 0 0 1 1.06,20l-26.61,32.93a153.8,153.8 0 0 1 7.57,18.25l42.09,4.47a15,15 0 0 1 13.41,14.91l0,60.38a15,15 0 0 1 -13.37,14.94l-42.09,4.47a153.8,153.8 0 0 1 -7.57,18.25l26.61,32.93a15,15 0 0 1 -1.06,20l-42.69,42.72a15,15 0 0 1 -20,1.06l-32.92,-26.6a152.91,152.91 0 0 1 -18.26,7.56l-4.46,42.09a15,15 0 0 1 -14.96,13.42zm-46.9,-30l33.39,0l4.09,-38.56a15,15 0 0 1 11.06,-12.91a123,123 0 0 0 30.16,-12.53a15,15 0 0 1 17,1.31l30.16,24.37l23.61,-23.61l-24.41,-30.07a15,15 0 0 1 -1.31,-17a122.63,122.63 0 0 0 12.49,-30.14a15,15 0 0 1 12.92,-11.06l38.55,-4.1l0,-33.39l-38.55,-4.1a15,15 0 0 1 -12.92,-11.06a122.63,122.63 0 0 0 -12.49,-30.15a15,15 0 0 1 1.31,-17l24.37,-30.16l-23.61,-23.61l-30.16,24.37a15,15 0 0 1 -17,1.31a123,123 0 0 0 -30.14,-12.49a15,15 0 0 1 -11.06,-12.91l-4.05,-38.51l-33.41,0l-4.09,38.56a15,15 0 0 1 -11.07,12.91a122.79,122.79 0 0 0 -30.11,12.53a15,15 0 0 1 -17,-1.31l-30.13,-24.41l-23.6,23.61l24.38,30.16a15,15 0 0 1 1.3,17a123.41,123.41 0 0 0 -12.49,30.14a15,15 0 0 1 -12.91,11.06l-38.56,4.1l0,33.38l38.56,4.1a15,15 0 0 1 12.91,11.06a123.41,123.41 0 0 0 12.48,30.11a15,15 0 0 1 -1.3,17l-24.37,30.11l23.61,23.61l30.17,-24.37a15,15 0 0 1 17,-1.31a122.79,122.79 0 0 0 30.13,12.49a15,15 0 0 1 11.07,12.91l4.02,38.56zm202.71,-140.81l0,0z"/>
  <path id="svg_2" d="m263.71,340.36a91.36,91.36 0 1 1 91.37,-91.36a91.46,91.46 0 0 1 -91.37,91.36zm0,-152.72a61.36,61.36 0 1 0 61.37,61.36a61.43,61.43 0 0 0 -61.37,-61.36z"/>
  <path stroke="#000000" d="m343.959571,217.834727c0,0 0,1.648872 0,3.297733c0,4.122175 33.097256,14.015373 33.097256,19.786408c0,4.122163 17.192043,9.925136 33.097256,12.366501c16.765283,2.573428 33.097256,4.946605 33.097256,7.419907c0,1.648872 -33.097256,6.595454 -66.194512,9.068768c-33.097256,2.473291 -33.097256,4.122151 -33.097256,6.595465l0,0.82443l0,0" id="svg_3" fill-opacity="null" stroke-opacity="0" stroke-width="null" fill="none"/>
  <rect id="svg_4" height="59.35921" width="98.212512" y="204.88363" x="328.84994" fill-opacity="null" stroke-opacity="0" stroke-width="null" stroke="#000000" fill="none"/>
  <rect id="svg_5" height="69.072536" width="120.876938" y="209.200663" x="326.691423" stroke-width="NaN" stroke="#000000" fill="#000000"/>
  <rect stroke="#000000" transform="rotate(-46.8925666809082 355.139129638672,337.8692321777344) " id="svg_6" height="110.574821" width="60.438469" y="282.581846" x="324.919888" stroke-width="NaN" fill="#000000"/>
  <rect stroke="#000000" transform="rotate(1.6987124681472778 263.4021606445317,379.9603271484378) " id="svg_7" height="110.574821" width="60.438469" y="324.672921" x="233.182925" stroke-width="NaN" fill="#000000"/>
  <rect stroke="#000000" transform="rotate(49.34008026123047 174.9029846191407,341.10705566406244) " id="svg_8" height="110.574821" width="60.438469" y="285.819621" x="144.683738" stroke-width="NaN" fill="#000000"/>
  <rect stroke="#000000" transform="rotate(87.63160705566406 133.8911590576172,248.29080200195312) " id="svg_9" height="110.574821" width="60.438469" y="193.003398" x="103.67192" stroke-width="NaN" fill="#000000"/>
  <rect stroke="#000000" transform="rotate(134.4329833984375 178.1407470703125,154.39532470703125) " id="svg_10" height="110.574821" width="60.438469" y="99.107921" x="147.921511" stroke-width="NaN" fill="#000000"/>
  <rect stroke="#000000" transform="rotate(179.48695373535156 264.48141479492193,123.09682464599608) " id="svg_11" height="110.574821" width="60.438469" y="67.809424" x="234.262184" stroke-width="NaN" fill="#000000"/>
  <rect stroke="#000000" transform="rotate(44.205665588378906 352.98062133789057,158.71237182617188) " id="svg_12" height="110.574821" width="60.438469" y="103.424955" x="322.761365" stroke-width="NaN" fill="#000000"/>
  <rect stroke="#000000" transform="rotate(66.41898345947266 233.18293762207034,143.6027374267578) " id="svg_13" height="110.574821" width="60.438469" y="88.31533" x="202.963691" stroke-width="NaN" fill="#000000"/>
  <rect stroke="#000000" transform="rotate(-147.8988037109375 166.26890563964844,205.12046813964844) " id="svg_14" height="110.574821" width="60.438469" y="149.833064" x="136.04967" stroke-width="NaN" fill="#000000"/>
  <rect stroke="#000000" transform="rotate(-30.683324813842773 168.42742919921892,294.6989135742188) " id="svg_15" height="110.574821" width="60.438469" y="239.41151" x="138.208186" stroke-width="NaN" fill="#000000"/>
  <rect stroke="#000000" transform="rotate(87.63160705566406 233.18292236328128,347.58258056640625) " id="svg_16" height="110.574821" width="60.438469" y="292.295169" x="202.963691" stroke-width="NaN" fill="#000000"/>
  <rect stroke="#000000" transform="rotate(87.63160705566406 306.57250976562494,343.2655334472656) " id="svg_17" height="110.574821" width="60.438469" y="287.978137" x="276.353255" stroke-width="NaN" fill="#000000"/>
  <rect stroke="#000000" transform="rotate(87.63160705566406 305.49322509765625,147.91976928710938) " id="svg_18" height="110.574821" width="60.438469" y="92.632373" x="275.274001" stroke-width="NaN" fill="#000000"/>
  <rect stroke="#000000" transform="rotate(87.63160705566406 363.3562927246095,248.84764099121094) " id="svg_19" height="52.656842" width="154.683852" y="222.519225" x="286.014408" stroke-width="NaN" fill="#000000"/>
 </g>
</svg>