<?xml version="1.0" ?><!DOCTYPE svg  PUBLIC '-//W3C//DTD SVG 1.1//EN'  'http://www.w3.org/Graphics/SVG/1.1/DTD/svg11.dtd'><svg height="512px" style="enable-background:new 0 0 512 512;" version="1.1" viewBox="0 0 512 512" width="512px" xml:space="preserve" xmlns="http://www.w3.org/2000/svg" xmlns:xlink="http://www.w3.org/1999/xlink"><g id="comp_x5F_222-msn"><g><g id="_x36_5-msn_3_"><g><g><g><path d="M198.664,26c0,0,160.566,18.864,82.084,289.021C268.365,357.742,227.71,486,140.595,486        c-87.07-2.705-47.784-93.988-47.784-93.988s21.045-56.492,68.089-76.588c30.885,13.484,71.342,30.416,70.424,29.529        c0.918,0.887-113.72-62.449-113.72-175.204C117.606,76.747,140.596,26,198.664,26L198.664,26z"/><path d="M418.72,155.692c21.477,6.381,9.835,91.888-78.019,186.56c-4.156,54.506-35.032,135.348-75.237,128.166        c-41.394-13.174,17.061-127.195,30.543-157.955C309.479,281.703,371.467,141.637,418.72,155.692L418.72,155.692z"/></g></g></g></g></g></g><g id="Layer_1"/></svg>
